<svg aria-hidden="true" style="position: absolute; width: 0; height: 0; overflow: hidden;" version="1.1" xmlns="http://www.w3.org/2000/svg" xmlns:xlink="http://www.w3.org/1999/xlink">
<defs>
<symbol id="icon-polygon" viewBox="0 0 52 32">
<path d="M26 32l-25.981-30h51.962l-25.981 30z"></path>
</symbol>
<symbol id="icon-search" viewBox="0 0 32 32">
<path d="M4.024 4.024c2.595-2.595 6.045-4.024 9.715-4.024s7.12 1.429 9.715 4.024c2.595 2.595 4.024 6.045 4.024 9.715 0 3.355-1.195 6.526-3.383 9.029l7.63 7.63c0.366 0.366 0.366 0.961 0 1.327-0.183 0.183-0.423 0.275-0.664 0.275s-0.48-0.092-0.663-0.275l-7.63-7.63c-2.502 2.188-5.673 3.383-9.029 3.383-3.67 0-7.12-1.429-9.715-4.024s-4.024-6.045-4.024-9.715 1.429-7.12 4.024-9.715zM5.351 22.127c4.625 4.625 12.15 4.625 16.775 0s4.625-12.15 0-16.775c-2.313-2.313-5.35-3.469-8.388-3.469s-6.075 1.157-8.388 3.469c-4.625 4.625-4.625 12.15 0 16.775z"></path>
</symbol>
<symbol id="icon-close" viewBox="0 0 32 32">
<path d="M1.646 32c-0.422 0-0.843-0.16-1.163-0.483-0.643-0.643-0.643-1.685 0-2.328l28.707-28.707c0.643-0.643 1.685-0.643 2.328 0s0.643 1.685 0 2.329l-28.707 28.706c-0.323 0.321-0.744 0.483-1.165 0.483z"></path>
<path d="M30.355 32c-0.421 0-0.843-0.16-1.163-0.483l-28.709-28.706c-0.643-0.643-0.643-1.686 0-2.329s1.685-0.643 2.329 0l28.707 28.707c0.643 0.643 0.643 1.685 0 2.328-0.323 0.321-0.744 0.483-1.163 0.483z"></path>
</symbol>
<symbol id="icon-ticket" viewBox="0 0 44 32">
<path d="M4.91 1.27h-4.91v29.46h4.91v-29.46z"></path>
<path d="M17.26 1.27h-4.91v29.46h4.91v-29.46z"></path>
<path d="M24.699 1.27h-4.91v29.46h4.91v-29.46z"></path>
<path d="M44.19 1.27h-7.291v29.46h7.291v-29.46z"></path>
<path d="M9.82 1.27h-2.381v29.46h2.381v-29.46z"></path>
<path d="M29.46 1.27h-2.381v29.46h2.381v-29.46z"></path>
<path d="M34.37 1.27h-2.381v29.46h2.381v-29.46z"></path>
</symbol>
</defs>
</svg>
